<svg width="32" height="32" viewBox="0 0 32 32" fill="none" xmlns="http://www.w3.org/2000/svg">
<path fill-rule="evenodd" clip-rule="evenodd" d="M15.9988 20.5002C14.7517 20.5002 13.5526 20.9809 12.6508 21.8423C12.0518 22.4145 11.1023 22.3927 10.5301 21.7937C9.95785 21.1946 9.97962 20.2451 10.5787 19.6729C12.0386 18.2784 13.9799 17.5002 15.9988 17.5002C18.0177 17.5002 19.959 18.2784 21.419 19.6729C22.018 20.2451 22.0398 21.1946 21.4676 21.7937C20.8954 22.3927 19.9459 22.4145 19.3468 21.8423C18.445 20.9809 17.2459 20.5002 15.9988 20.5002Z" fill="#7E868F"/>
<path d="M15.9998 26.9999C17.1044 26.9999 17.9998 26.1045 17.9998 24.9999C17.9998 23.8953 17.1044 22.9999 15.9998 22.9999C14.8952 22.9999 13.9998 23.8953 13.9998 24.9999C13.9998 26.1045 14.8952 26.9999 15.9998 26.9999Z" fill="#7E868F"/>
</svg>
